<?xml version="1.0" standalone="no"?>
<!DOCTYPE svg PUBLIC "-//W3C//DTD SVG 20010904//EN"
 "http://www.w3.org/TR/2001/REC-SVG-20010904/DTD/svg10.dtd">
<svg version="1.0" xmlns="http://www.w3.org/2000/svg"
 width="800.000000pt" height="600.000000pt" viewBox="0 0 800.000000 600.000000"
 preserveAspectRatio="xMidYMid meet">
<metadata>
Created by potrace 1.13, written by Peter Selinger 2001-2015
</metadata>
<g transform="translate(0.000000,600.000000) scale(0.100000,-0.100000)"
fill="#000000" stroke="none">
<path d="M3490 4183 c-33 -7 -52 -23 -46 -39 3 -7 -13 -24 -34 -38 -42 -27
-180 -178 -254 -277 -25 -33 -71 -106 -102 -161 -187 -330 -255 -685 -185
-961 51 -198 153 -288 396 -351 151 -40 278 -37 441 9 202 57 335 133 422 241
97 122 171 306 232 579 65 293 50 487 -53 690 -41 80 -67 115 -129 176 -84 83
-121 105 -201 120 -59 10 -449 20 -487 12z m275 -58 c99 -3 201 -11 228 -18
56 -14 155 -90 197 -151 54 -79 111 -204 130 -286 26 -107 26 -257 1 -387 -61
-304 -128 -492 -221 -619 -81 -108 -203 -182 -398 -238 -108 -31 -138 -36
-231 -36 -163 0 -328 47 -422 121 -92 73 -136 186 -146 371 -12 238 36 443
163 699 71 142 110 205 203 329 144 190 194 231 270 225 25 -3 127 -7 226 -10z"/>
</g>
</svg>
