<?xml version="1.0" standalone="no"?>
<!DOCTYPE svg PUBLIC "-//W3C//DTD SVG 20010904//EN"
 "http://www.w3.org/TR/2001/REC-SVG-20010904/DTD/svg10.dtd">
<svg version="1.0" xmlns="http://www.w3.org/2000/svg"
 width="800.000000pt" height="600.000000pt" viewBox="0 0 800.000000 600.000000"
 preserveAspectRatio="xMidYMid meet">
<metadata>
Created by potrace 1.13, written by Peter Selinger 2001-2015
</metadata>
<g transform="translate(0.000000,600.000000) scale(0.100000,-0.100000)"
fill="#000000" stroke="none">
<path d="M3778 4385 c-34 -19 -172 -207 -237 -323 -181 -326 -293 -576 -411
-917 -48 -139 -179 -427 -252 -555 l-20 -35 30 32 c56 59 202 323 260 470 17
43 68 173 113 288 126 323 314 688 452 875 38 52 72 97 74 100 6 6 34 -32 59
-78 10 -21 48 -91 84 -157 148 -270 179 -347 250 -625 50 -193 105 -367 143
-455 19 -44 38 -91 42 -105 4 -14 25 -59 45 -100 35 -69 104 -250 98 -255 -5
-4 -180 -24 -293 -34 -106 -10 -593 -20 -1010 -22 -110 -1 -229 -4 -265 -8
l-65 -7 80 -8 c276 -28 1170 -30 1384 -2 74 9 149 23 167 31 27 11 34 11 47
-3 14 -14 17 -14 22 0 8 21 -49 196 -100 303 -23 50 -67 153 -98 230 -54 136
-69 183 -157 500 -64 228 -136 392 -251 570 -25 39 -64 100 -87 136 -24 37
-52 75 -63 84 -15 14 -18 26 -13 52 7 38 8 37 -28 18z"/>
</g>
</svg>
