<?xml version="1.0" encoding="utf-8"?>
<!-- Generator: Adobe Illustrator 15.1.0, SVG Export Plug-In . SVG Version: 6.00 Build 0)  -->
<!DOCTYPE svg PUBLIC "-//W3C//DTD SVG 1.1//EN" "http://www.w3.org/Graphics/SVG/1.1/DTD/svg11.dtd">
<svg version="1.1" id="www.zulu-shirts.de" xmlns="http://www.w3.org/2000/svg" xmlns:xlink="http://www.w3.org/1999/xlink" x="0px"
	 y="0px" width="779px" height="599px" viewBox="0 0 779 599" enable-background="new 0 0 779 599" xml:space="preserve">
<g>
	<g>
		<path fill="#D8B78B" d="M514.385,294.685c1.003,7.233,2.435,31.765,10.742,35.76c26.907,12.937,36.341-47.829,39.328-62.465
			c2.977-14.563-1.146-48.832-23.245-40.594c-0.727,0.27-1.248,0.604-1.626,0.975c-9.638-4.158-20.708-3.09-24.228,8.699
			C510.139,254.531,511.919,277.006,514.385,294.685z"/>
	</g>
	<g>
		<path fill="#D8B78B" d="M263.355,237.06c-3.514-11.789-14.589-12.857-24.232-8.699c-0.368-0.37-0.89-0.705-1.616-0.975
			c-22.099-8.238-26.227,26.03-23.255,40.594c2.987,14.636,12.43,75.401,39.337,62.465c8.308-3.995,9.735-28.526,10.743-35.76
			C266.788,277.006,268.568,254.531,263.355,237.06z"/>
	</g>
	<g>
		<path fill="#7F512E" d="M539.093,262.757c0-80.021-66.869-144.89-149.361-144.89c-82.481,0-149.351,58.781-149.351,144.89
			c0,160.794,66.869,144.888,149.351,144.888C472.224,407.645,539.093,423.551,539.093,262.757z"/>
		<path d="M429.1,410.698L429.1,410.698c-6.158,0-12.471-0.104-18.911-0.212c-13.387-0.221-27.542-0.221-40.908,0
			c-6.44,0.107-12.753,0.212-18.912,0.212c-63.8,0-112.606-10.894-112.606-147.941c0-84.093,65.334-147.509,151.97-147.509
			c83.801,0,151.98,66.174,151.98,147.509c0,63.381-10.165,103.054-31.992,124.853C490.47,406.834,464.596,410.698,429.1,410.698z
			 M389.732,405.025c6.967,0,13.827,0.112,20.544,0.225c6.41,0.105,12.696,0.21,18.824,0.21c34.161,0,58.945-3.606,76.916-21.557
			c20.779-20.753,30.458-59.249,30.458-121.146c0-78.448-65.826-142.271-146.742-142.271C306.079,120.486,243,181.649,243,262.757
			c0,132.467,44.5,142.703,107.368,142.703c6.128,0,12.41-0.104,18.825-0.21C375.905,405.138,382.765,405.025,389.732,405.025z"/>
	</g>
	<g>
		<path fill="#D8B78B" d="M266.726,312.663c0,74.374,55.308,134.664,123.533,134.664c68.214,0,123.522-60.29,123.522-134.664
			c0-74.376-0.655-168.41-124.06-139.13C249.947,144.253,266.726,238.287,266.726,312.663z"/>
		<path d="M390.259,450.473c-69.851,0-126.679-61.82-126.679-137.81c0-7.128-0.153-14.436-0.312-21.799
			c-0.854-40.287-1.734-81.947,21.899-106.085c19.868-20.298,53.789-24.986,104.514-14.469c15.3-3.589,29.337-5.407,41.726-5.407
			c85.52,0,85.52,85.402,85.52,147.76C516.927,388.652,460.104,450.473,390.259,450.473z M343.299,171.198
			c-24.242,0-41.788,5.883-53.636,17.985c-21.781,22.245-20.927,62.56-20.104,101.547c0.159,7.407,0.312,14.761,0.312,21.933
			c0,72.519,54.004,131.519,120.387,131.519c66.373,0,120.376-59,120.376-131.519c0-63.027,0-141.465-79.228-141.465
			c-12.083,0-25.863,1.815-40.959,5.396l-0.686,0.164l-0.686-0.146C371.92,173.02,356.522,171.198,343.299,171.198z"/>
	</g>
	<g>
		<path fill="#FFFFFF" d="M364.738,272.535c0-24.689-15.643-44.706-34.949-44.706c-19.295,0-34.943,20.017-34.943,44.706
			c0,24.692,15.648,44.709,34.943,44.709C349.095,317.244,364.738,297.228,364.738,272.535z"/>
		<path d="M329.789,319.863c-20.712,0-37.563-21.231-37.563-47.328s16.85-47.325,37.563-47.325
			c20.713,0,37.568,21.229,37.568,47.325S350.502,319.863,329.789,319.863z M329.789,230.448c-17.822,0-32.324,18.881-32.324,42.087
			c0,23.209,14.502,42.09,32.324,42.09c17.828,0,32.33-18.881,32.33-42.09C362.119,249.329,347.617,230.448,329.789,230.448z"/>
	</g>
	<g>
		<path fill="#FFFFFF" d="M485.217,272.535c0-24.689-15.644-44.706-34.949-44.706c-19.295,0-34.938,20.017-34.938,44.706
			c0,24.692,15.643,44.709,34.938,44.709C469.573,317.244,485.217,297.228,485.217,272.535z"/>
		<path d="M450.268,319.863c-20.707,0-37.557-21.231-37.557-47.328s16.85-47.325,37.557-47.325
			c20.713,0,37.568,21.229,37.568,47.325S470.98,319.863,450.268,319.863z M450.268,230.448c-17.822,0-32.319,18.881-32.319,42.087
			c0,23.209,14.497,42.09,32.319,42.09c17.827,0,32.33-18.881,32.33-42.09C482.598,249.329,468.095,230.448,450.268,230.448z"/>
	</g>
	<g>
		<path fill="#1A171B" d="M317.983,288.051c0,12.169,6.313,22.034,14.098,22.034c7.791,0,14.103-9.865,14.103-22.034
			c0-12.168-6.313-22.032-14.103-22.032C324.295,266.019,317.983,275.883,317.983,288.051z"/>
	</g>
	<g>
		<path fill="#1A171B" d="M433.223,288.051c0,12.169,6.313,22.034,14.099,22.034c7.796,0,14.108-9.865,14.108-22.034
			c0-12.168-6.313-22.032-14.108-22.032C439.535,266.019,433.223,275.883,433.223,288.051z"/>
	</g>
	<g>
		<path fill="#D8B78B" d="M542.807,389.293c0,50.722-68.537,91.84-153.069,91.84c-84.533,0-153.064-41.118-153.064-91.84
			c0-50.721,68.532-91.838,153.064-91.838C474.27,297.455,542.807,338.572,542.807,389.293z"/>
		<path d="M389.737,483.752c-85.842,0-155.684-42.374-155.684-94.459c0-52.084,69.841-94.457,155.684-94.457
			c85.847,0,155.688,42.373,155.688,94.457C545.426,441.378,475.584,483.752,389.737,483.752z M389.737,300.074
			c-82.958,0-150.445,40.023-150.445,89.219c0,49.197,67.488,89.221,150.445,89.221c82.957,0,150.45-40.023,150.45-89.221
			C540.188,340.098,472.694,300.074,389.737,300.074z"/>
	</g>
	<g>
		<path d="M245.159,327.659c-0.021,0.003-2.465,0.567-5.913-1.545c-5.366-3.284-12.799-12.638-17.802-38.742
			c-2.937-10.898-4.461-19.723-5.003-26.866c-0.107-1.43-0.174-2.79-0.21-4.087c-0.322-12.978,2.982-19.549,6.614-22.863
			c5.791-5.282,14.262-4.067,18.19-3.103c1.31,0.319,2.118,0.613,2.148,0.626l1.836-4.908c-0.634-0.235-15.566-5.69-25.674,3.486
			c-8.809,7.998-10.661,24.253-5.576,48.254c0.721,3.415,1.586,6.988,2.588,10.717c4.266,22.266,11.049,36.384,20.15,41.955
			c3.177,1.946,5.939,2.381,7.78,2.381c1.299,0,2.144-0.22,2.333-0.276L245.159,327.659z"/>
	</g>
	<g>
		<path d="M559.656,229.657c-10.098-9.174-25.035-3.722-25.669-3.486l1.831,4.908c0.123-0.051,12.636-4.56,20.339,2.477
			c0.368,0.33,0.727,0.695,1.085,1.095c4.941,5.594,8.584,18.192,1.893,46.543c-0.471,1.981-0.992,4.038-1.565,6.179l0,0
			c-0.021,0.067-0.03,0.123-0.051,0.189c-4.891,25.569-12.206,34.987-17.485,38.384c-3.58,2.308-6.138,1.727-6.189,1.714
			l-1.463,5.028c0.194,0.057,1.033,0.276,2.343,0.276c1.831,0,4.604-0.438,7.775-2.381c9.116-5.581,15.899-19.726,20.124-41.85
			C570.706,258.662,569.714,238.786,559.656,229.657z"/>
	</g>
	<g>
		<path d="M292.938,227.479c0.138,2.943,2.803-2.354,4.629-4.039c3.1-2.856,7.413-5.174,11.75-7.235
			c10.947-5.197,24.186-7.164,36.581-7.423c2.553-0.054,3.095-16.009-2.538-15.889c-27.388,0.565-57.472,12.213-56.582,31.24
			c0.123,2.678,0.245,7.665,3.55,9.453C292.799,234.929,292.958,227.816,292.938,227.479L292.938,227.479z"/>
	</g>
	<g>
		<path d="M488.234,227.479c-0.138,2.943-2.803-2.354-4.629-4.039c-3.101-2.856-7.412-5.174-11.75-7.235
			c-10.947-5.197-24.187-7.164-36.581-7.423c-2.553-0.054-3.095-16.009,2.537-15.889c27.389,0.565,57.473,12.213,56.582,31.24
			c-0.123,2.678-0.245,7.665-3.55,9.453C488.373,234.929,488.214,227.816,488.234,227.479L488.234,227.479z"/>
	</g>
	<g>
		<rect x="236.745" y="384.551" width="306.062" height="5.238"/>
	</g>
	<g>
		<g opacity="0.21">
			<ellipse fill="#009EE0" cx="330.383" cy="269.154" rx="50.868" ry="48.09"/>
		</g>
		<g>
			<path d="M330.383,319.863c-29.491,0-53.487-22.748-53.487-50.709c0-27.962,23.997-50.707,53.487-50.707
				c29.49,0,53.487,22.745,53.487,50.707C383.87,297.115,359.873,319.863,330.383,319.863z M330.383,223.686
				c-26.605,0-48.249,20.397-48.249,45.469c0,25.073,21.644,45.471,48.249,45.471s48.249-20.397,48.249-45.471
				C378.631,244.083,356.988,223.686,330.383,223.686z"/>
		</g>
	</g>
	<g>
		<path d="M280.517,262.243c-0.624,0-1.253-0.223-1.749-0.673l-40.131-36.098c-1.08-0.967-1.167-2.621-0.2-3.698
			c0.962-1.076,2.629-1.161,3.699-0.194l40.13,36.098c1.08,0.967,1.167,2.621,0.2,3.698
			C281.95,261.951,281.233,262.243,280.517,262.243z"/>
	</g>
	<g>
		<g opacity="0.21">
			<ellipse fill="#009EE0" cx="448.396" cy="269.154" rx="50.868" ry="48.09"/>
		</g>
		<g>
			<path d="M448.396,319.863c-29.49,0-53.487-22.748-53.487-50.709c0-27.962,23.997-50.707,53.487-50.707
				s53.487,22.745,53.487,50.707C501.883,297.115,477.886,319.863,448.396,319.863z M448.396,223.686
				c-26.605,0-48.249,20.397-48.249,45.469c0,25.073,21.644,45.471,48.249,45.471c26.605,0,48.249-20.397,48.249-45.471
				C496.645,244.083,475.001,223.686,448.396,223.686z"/>
		</g>
	</g>
	<g>
		<path d="M498.261,262.243c-0.716,0-1.433-0.292-1.949-0.867c-0.967-1.077-0.88-2.731,0.2-3.698l40.131-36.098
			c1.063-0.967,2.727-0.882,3.698,0.194c0.967,1.077,0.88,2.731-0.2,3.698l-40.13,36.098
			C499.515,262.021,498.885,262.243,498.261,262.243z"/>
	</g>
	<g>
		<path d="M395.804,271.924c-0.609,0-1.223-0.199-1.734-0.608c-3.714-2.982-9.177,0.187-9.228,0.22
			c-1.33,0.775-3.013,0.338-3.791-0.97c-0.783-1.31-0.358-3.003,0.946-3.785c0.368-0.215,8.804-5.182,15.541,0.212
			c1.192,0.957,1.381,2.701,0.425,3.896C397.416,271.568,396.612,271.924,395.804,271.924z"/>
	</g>
</g>
</svg>
