<?xml version="1.0" standalone="no"?>
<!DOCTYPE svg PUBLIC "-//W3C//DTD SVG 20010904//EN"
 "http://www.w3.org/TR/2001/REC-SVG-20010904/DTD/svg10.dtd">
<svg version="1.0" xmlns="http://www.w3.org/2000/svg"
 width="800.000000pt" height="600.000000pt" viewBox="0 0 800.000000 600.000000"
 preserveAspectRatio="xMidYMid meet">
<metadata>
Created by potrace 1.13, written by Peter Selinger 2001-2015
</metadata>
<g transform="translate(0.000000,600.000000) scale(0.100000,-0.100000)"
fill="#000000" stroke="none">
<path d="M3630 4069 c-72 -18 -1164 -40 -1190 -24 -6 3 -10 1 -10 -4 0 -7 -23
-11 -57 -11 -67 0 -67 -6 2 -13 28 -3 51 -6 51 -6 5 -3 8 -313 6 -576 -2 -203
-8 -345 -18 -410 -37 -252 -38 -269 -22 -316 15 -44 15 -44 27 -19 l12 25 257
-1 c294 -1 696 10 786 23 l61 8 -90 5 c-100 6 -604 15 -848 15 l-157 0 0 34
c0 19 4 62 9 95 6 34 15 96 21 140 15 98 14 626 -1 716 -6 36 -14 109 -18 163
l-6 98 160 -7 c201 -10 830 -10 951 0 l90 7 -4 -368 c-2 -264 -8 -391 -18
-448 -20 -111 -39 -431 -27 -474 10 -40 27 -50 38 -24 4 10 11 97 16 193 6 96
17 224 26 285 16 111 16 234 -3 685 l-7 155 60 13 c69 14 98 36 61 46 -32 8
-116 6 -158 -5z"/>
</g>
</svg>
